<svg width="829" height="227" viewBox="0 0 829 227" fill="none" xmlns="http://www.w3.org/2000/svg">
<g clip-path="url(#clip0_1_429)">
<path d="M757.349 43.2589C758.508 43.2589 759.645 43.5814 760.631 44.1904C761.617 44.7993 762.414 45.6706 762.933 46.7066C763.452 47.7426 763.671 48.9024 763.567 50.056C763.463 51.2096 763.039 52.3114 762.343 53.238L722.534 106.003C721.769 107.012 720.78 107.83 719.645 108.393C718.509 108.956 717.258 109.248 715.991 109.246C714.806 109.25 713.635 108.997 712.558 108.503C711.481 108.01 710.524 107.289 709.754 106.389C708.985 105.489 708.42 104.433 708.1 103.294C707.779 102.154 707.711 100.959 707.899 99.7906L712.145 73.1962C712.29 72.3073 712.239 71.3974 711.997 70.5299C711.755 69.6623 711.327 68.8577 710.742 68.1718C710.158 67.486 709.431 66.9352 708.613 66.5579C707.794 66.1805 706.903 65.9855 706.001 65.9863H687.295C686.136 65.9863 684.999 65.6638 684.013 65.0549C683.027 64.4459 682.229 63.5746 681.711 62.5387C681.192 61.5027 680.973 60.3429 681.077 59.1893C681.181 58.0357 681.605 56.9338 682.3 56.0072L722.684 2.46927C723.268 1.69751 724.023 1.07087 724.889 0.638153C725.756 0.205437 726.71 -0.0216769 727.679 -0.0255127H764.966C766.125 -0.0255127 767.262 0.297015 768.248 0.905956C769.235 1.5149 770.032 2.38617 770.55 3.42217C771.069 4.45816 771.288 5.61793 771.184 6.77152C771.08 7.92512 770.656 9.02699 769.961 9.95361L752.479 33.2548C751.782 34.1729 751.353 35.2658 751.24 36.4124C751.127 37.5589 751.335 38.7143 751.839 39.7504C752.343 40.7865 753.125 41.6627 754.098 42.282C755.07 42.9013 756.195 43.2394 757.349 43.2589Z" fill="#FF1659"/>
<path d="M815.114 86.5684C816.274 86.5684 817.41 86.891 818.397 87.5C819.383 88.1089 820.18 88.9801 820.699 90.0161C821.217 91.0521 821.437 92.2119 821.332 93.3655C821.228 94.5191 820.805 95.6209 820.109 96.5476L780.3 149.312C779.535 150.322 778.546 151.14 777.41 151.703C776.275 152.265 775.024 152.557 773.757 152.555C772.572 152.552 771.402 152.292 770.327 151.795C769.253 151.297 768.298 150.573 767.53 149.673C766.761 148.772 766.197 147.717 765.875 146.578C765.553 145.439 765.481 144.244 765.665 143.075L769.935 116.506C770.076 115.615 770.022 114.705 769.777 113.838C769.532 112.97 769.101 112.166 768.515 111.481C767.928 110.795 767.2 110.245 766.381 109.868C765.561 109.491 764.669 109.296 763.767 109.296H745.061C743.901 109.296 742.765 108.973 741.779 108.364C740.792 107.755 739.995 106.884 739.477 105.848C738.958 104.812 738.738 103.652 738.843 102.499C738.947 101.345 739.37 100.243 740.066 99.3168L780.45 45.7788C781.033 45.0056 781.787 44.3779 782.654 43.9451C783.52 43.5122 784.476 43.2859 785.445 43.284H822.756C823.916 43.284 825.052 43.6066 826.039 44.2155C827.025 44.8244 827.822 45.6957 828.341 46.7317C828.859 47.7677 829.079 48.9275 828.975 50.0811C828.871 51.2347 828.447 52.3365 827.751 53.2631L810.269 76.5644C809.574 77.4808 809.145 78.5714 809.031 79.7158C808.917 80.8602 809.122 82.0138 809.624 83.049C810.125 84.0843 810.903 84.9609 811.872 85.582C812.841 86.2031 813.963 86.5445 815.114 86.5684Z" fill="#FFA300"/>
<path d="M735.77 161.013C736.93 161.013 738.067 161.335 739.053 161.944C740.039 162.553 740.836 163.424 741.355 164.46C741.873 165.496 742.093 166.656 741.989 167.81C741.885 168.963 741.461 170.065 740.765 170.992L700.956 223.756C700.191 224.766 699.202 225.584 698.066 226.147C696.931 226.71 695.68 227.002 694.413 227C693.228 227.004 692.057 226.75 690.98 226.257C689.903 225.764 688.946 225.042 688.176 224.143C687.406 223.243 686.842 222.187 686.521 221.048C686.201 219.908 686.133 218.713 686.321 217.544L690.567 190.95C690.712 190.061 690.661 189.151 690.419 188.284C690.177 187.416 689.749 186.611 689.164 185.926C688.58 185.24 687.853 184.689 687.034 184.312C686.216 183.934 685.325 183.739 684.423 183.74H665.717C664.558 183.74 663.421 183.418 662.435 182.809C661.448 182.2 660.651 181.328 660.133 180.292C659.614 179.256 659.395 178.097 659.499 176.943C659.603 175.789 660.027 174.688 660.722 173.761L701.106 120.173C701.69 119.401 702.445 118.775 703.311 118.342C704.178 117.909 705.132 117.682 706.101 117.678H743.388C744.547 117.678 745.684 118.001 746.67 118.61C747.656 119.219 748.453 120.09 748.972 121.126C749.491 122.162 749.71 123.322 749.606 124.475C749.502 125.629 749.078 126.731 748.382 127.657L730.9 150.959C730.189 151.876 729.749 152.974 729.628 154.129C729.507 155.283 729.712 156.448 730.218 157.493C730.724 158.537 731.512 159.42 732.492 160.042C733.473 160.664 734.609 161 735.77 161.013Z" fill="#2DCCD3"/>
<path d="M111.661 135.841L88.2846 50.1451L64.9086 135.841H37.0371L0.125 15.8419H28.3461L52.0967 104.057L74.9233 15.8419H101.721L124.572 104.057L148.473 15.8419H176.544L139.657 135.841H111.661Z" fill="black"/>
<path d="M160.96 93.629C160.96 66.6854 180.365 49.6212 205.364 49.6212C230.913 49.6212 247.996 64.8892 247.996 86.4441C247.939 91.1212 246.83 95.7257 244.749 99.9159H185.41C187.033 112.14 196.199 118.228 210.759 118.228C220.163 118.103 229.315 115.166 237.032 109.795L244.399 126.51C233.849 133.992 221.173 137.892 208.237 137.637C182.438 137.637 160.96 122.918 160.96 93.629ZM185.41 84.099H223.346C223.523 83.5177 223.582 82.9072 223.521 82.3028C223.521 73.8704 217.777 68.1075 206.039 68.1075C201.252 67.8576 196.534 69.3354 192.747 72.2711C188.96 75.2068 186.356 79.4048 185.41 84.099Z" fill="black"/>
<path d="M248.171 122.02L257.361 102.71C270.473 112.041 282.161 116.731 292.775 116.731C307.16 116.731 315.252 110.968 315.252 101.089C315.252 94.0782 310.257 89.2383 300.867 87.2674L283.959 84.0242C261.133 79.8829 251.792 68.9308 251.792 53.1139C251.792 31.559 265.453 14.1454 296.197 14.1454C310.959 13.8046 325.415 18.3868 337.28 27.1682L328.114 46.5526C316.776 39.5423 306.536 35.0517 296.646 35.0517C283.684 35.0517 277.391 40.64 277.391 49.247C277.391 56.2573 282.386 59.6752 291.776 61.7209L308.684 64.9641C331.161 69.0805 340.876 82.4275 340.876 98.1946C340.876 122.444 324.143 137.712 292.675 137.712C276.413 138.129 260.568 132.542 248.171 122.02Z" fill="black"/>
<path d="M352.663 109.446V71.0014H335.381V51.4174H352.663V27.3428H376.738V51.4174H397.442V71.0014H376.738V107.101C376.738 113.912 380.335 117.329 387.353 117.329C390.696 117.358 394.036 117.125 397.342 116.631V135.142C392.293 136.473 387.079 137.078 381.858 136.938C361.279 136.914 352.663 128.107 352.663 109.446Z" fill="black"/>
<path d="M402.213 112.14C402.213 95.0511 415.699 88.5896 433.331 86.2695L460.653 83.0262C459.03 73.4962 451.487 69.3798 442.322 69.3798C434.58 69.3798 426.838 71.8746 416.049 78.1864L408.332 60.9225C418.735 53.6944 431.074 49.757 443.745 49.6212C470.543 49.6212 484.928 60.7479 484.928 84.5481V135.916H462.276V125.936C455.258 134.369 446.817 137.612 433.331 137.612C415.549 137.637 402.213 128.83 402.213 112.14ZM461.028 101.338V98.6436L441.048 101.138C431.533 102.411 426.663 105.105 426.663 110.843C426.663 116.581 431.358 119.101 440.524 119.101C453.31 119.126 461.053 110.693 461.053 101.338H461.028Z" fill="black"/>
<path d="M493.769 135.841V51.4174H516.42V64.3404C518.281 60.0238 521.409 56.3727 525.391 53.8693C529.373 51.366 534.022 50.1283 538.722 50.3197C541.171 50.1622 543.625 50.5367 545.915 51.4174V74.2197C542.557 73.4381 539.124 73.0199 535.676 72.9723C525.411 72.9723 517.694 80.6812 517.694 95.0511V135.841H493.769Z" fill="black"/>
<path d="M568.492 109.446V71.0014H551.234V51.4174H568.492V27.3428H592.592V51.4174H613.271V71.0014H592.592V107.101C592.592 113.912 596.188 117.329 603.206 117.329C606.549 117.36 609.89 117.126 613.196 116.631V135.142C608.155 136.473 602.949 137.078 597.737 136.938C577.033 136.914 568.492 128.107 568.492 109.446Z" fill="black"/>
<path d="M43.5805 201.578C42.1359 200.942 40.8549 199.987 39.8343 198.784V202.152H36.5127V168.971H39.8343V180.672C40.8919 179.492 42.1738 178.534 43.6054 177.853C45.0331 177.175 46.5949 176.825 48.1757 176.83C50.2745 176.815 52.3319 177.413 54.0947 178.551C55.8954 179.707 57.3597 181.316 58.3403 183.217C59.3591 185.236 59.8898 187.466 59.8898 189.728C59.8898 191.99 59.3591 194.22 58.3403 196.239C57.3449 198.123 55.8833 199.72 54.0947 200.88C52.3244 201.998 50.2704 202.587 48.1757 202.576C46.5889 202.588 45.0193 202.247 43.5805 201.578ZM52.4214 198.011C53.7164 197.144 54.7659 195.958 55.4683 194.568C56.1911 193.057 56.5663 191.403 56.5663 189.728C56.5663 188.053 56.1911 186.399 55.4683 184.888C54.7659 183.498 53.7164 182.312 52.4214 181.445C51.1741 180.586 49.6911 180.132 48.1757 180.148C46.6682 180.133 45.1932 180.586 43.9551 181.445C42.6677 182.314 41.6267 183.5 40.9332 184.888C40.2103 186.399 39.8352 188.053 39.8352 189.728C39.8352 191.403 40.2103 193.057 40.9332 194.568C41.6267 195.956 42.6677 197.142 43.9551 198.011C45.2052 198.839 46.6756 199.274 48.1757 199.258C49.6827 199.267 51.1591 198.833 52.4214 198.011Z" fill="black"/>
<path d="M61.3616 210.36L62.935 207.416C63.5769 207.77 64.2999 207.95 65.0329 207.94C67.1807 207.94 68.854 206.243 70.0278 202.95L70.3025 202.227L60.9121 177.279H64.4834L71.9758 197.437L79.6179 177.279H83.1144L73.1246 204.023C71.4596 208.863 68.7458 211.283 64.9829 211.283C63.7172 211.286 62.4713 210.968 61.3616 210.36Z" fill="black"/>
<path d="M96.1514 185.562V168.971H110.961C112.502 168.953 114.016 169.368 115.332 170.169C116.644 170.984 117.72 172.128 118.454 173.487C119.216 174.913 119.603 176.51 119.577 178.127C119.596 179.744 119.21 181.339 118.454 182.768C117.726 184.117 116.647 185.246 115.332 186.036C114.014 186.829 112.499 187.235 110.961 187.208H99.473V202.177H96.1514V185.562ZM110.961 183.89C111.677 183.909 112.389 183.775 113.048 183.495C113.708 183.215 114.299 182.797 114.782 182.269C115.79 181.13 116.318 179.646 116.256 178.127C116.313 176.594 115.787 175.097 114.782 173.936C114.301 173.403 113.711 172.98 113.052 172.696C112.392 172.412 111.679 172.273 110.961 172.29H99.473V183.89H110.961Z" fill="black"/>
<path d="M130.267 168.971H133.813L147.124 202.152H143.553L139.133 191.15H124.997L120.577 202.152H117.03L130.267 168.971ZM137.759 187.832L132.015 173.437L126.221 187.832H137.759Z" fill="black"/>
<path d="M152.119 200.88C150.04 199.651 148.505 197.681 147.823 195.366L150.995 194.468C151.239 195.269 151.641 196.012 152.177 196.655C152.713 197.298 153.373 197.826 154.117 198.21C155.85 199.22 157.83 199.73 159.836 199.682C161.369 199.691 162.889 199.395 164.306 198.809C165.573 198.308 166.697 197.502 167.578 196.464C168.355 195.57 168.789 194.43 168.802 193.246C168.792 192.486 168.62 191.736 168.297 191.048C167.974 190.359 167.507 189.748 166.929 189.254C165.566 188.032 163.871 187.242 162.059 186.984L159.561 186.51C158.666 186.385 157.781 186.193 156.914 185.936C154.593 185.528 152.456 184.412 150.795 182.743C150.025 182.042 149.406 181.192 148.976 180.244C148.547 179.296 148.316 178.27 148.298 177.229C148.287 175.593 148.813 173.998 149.796 172.689C150.882 171.263 152.307 170.131 153.942 169.396C155.723 168.564 157.67 168.146 159.636 168.173C162.046 168.132 164.418 168.772 166.479 170.019C168.375 171.067 169.823 172.77 170.55 174.809L167.403 175.882C166.865 174.517 165.843 173.398 164.531 172.739C163.006 171.887 161.283 171.457 159.536 171.491C158.157 171.469 156.788 171.732 155.515 172.265C154.385 172.716 153.383 173.435 152.593 174.36C151.9 175.156 151.519 176.175 151.519 177.229C151.535 177.869 151.683 178.498 151.954 179.077C152.225 179.657 152.612 180.174 153.093 180.597C154.22 181.667 155.634 182.387 157.164 182.668H157.338L158.288 182.892L159.861 183.192L160.81 183.391L162.333 183.666C164.901 184.079 167.276 185.282 169.126 187.108C169.965 187.885 170.634 188.827 171.089 189.875C171.545 190.923 171.778 192.053 171.774 193.196C171.798 195 171.208 196.76 170.1 198.185C168.929 199.72 167.392 200.938 165.63 201.728C163.703 202.612 161.606 203.063 159.486 203.05C156.876 203.028 154.324 202.276 152.119 200.88Z" fill="black"/>
<path d="M175.545 168.971H178.867V183.94H198.122V168.971H201.443V202.152H198.122V187.183H178.867V202.152H175.545V168.971Z" fill="black"/>
<path d="M217.402 168.971H220.973L234.259 202.152H230.688L226.293 191.15H212.107L207.687 202.152H204.115L217.402 168.971ZM224.894 187.832L219.15 173.437L213.381 187.832H224.894Z" fill="black"/>
<path d="M247.896 168.971H251.217V183.94H270.497V168.971H273.794V202.152H270.497V187.183H251.217V202.152H247.896V168.971Z" fill="black"/>
<path d="M282.985 200.88C281.198 199.726 279.743 198.126 278.764 196.239C277.746 194.22 277.215 191.99 277.215 189.728C277.215 187.466 277.746 185.236 278.764 183.217C279.728 181.312 281.186 179.701 282.985 178.551C284.748 177.413 286.805 176.815 288.904 176.83C290.995 176.813 293.045 177.411 294.798 178.551C296.604 179.701 298.07 181.311 299.044 183.217C300.078 185.232 300.617 187.464 300.617 189.728C300.617 191.992 300.078 194.224 299.044 196.239C298.056 198.128 296.592 199.727 294.798 200.88C293.038 202.002 290.991 202.591 288.904 202.576C286.809 202.587 284.755 201.998 282.985 200.88ZM293.15 198.011C294.443 197.149 295.486 195.962 296.171 194.568C296.91 193.061 297.294 191.406 297.294 189.728C297.294 188.05 296.91 186.395 296.171 184.888C295.486 183.494 294.443 182.307 293.15 181.445C291.898 180.594 290.418 180.142 288.904 180.148C287.396 180.129 285.92 180.583 284.683 181.445C283.396 182.314 282.355 183.5 281.661 184.888C280.923 186.395 280.538 188.05 280.538 189.728C280.538 191.406 280.923 193.061 281.661 194.568C282.355 195.956 283.396 197.142 284.683 198.011C285.933 198.839 287.404 199.274 288.904 199.258C290.411 199.264 291.886 198.83 293.15 198.011Z" fill="black"/>
<path d="M304.038 168.971H307.31V202.152H303.988L304.038 168.971Z" fill="black"/>
<path d="M316.626 200.88C314.839 199.726 313.384 198.126 312.405 196.239C311.386 194.22 310.855 191.99 310.855 189.728C310.855 187.466 311.386 185.236 312.405 183.217C313.369 181.312 314.826 179.701 316.626 178.551C318.173 177.56 319.946 176.976 321.78 176.854C323.614 176.732 325.45 177.075 327.115 177.853C328.557 178.54 329.855 179.497 330.936 180.672V168.971H334.258V202.152H330.936V198.784C329.891 199.971 328.606 200.924 327.165 201.578C325.718 202.25 324.14 202.59 322.545 202.576C320.45 202.587 318.396 201.998 316.626 200.88ZM326.79 198.011C328.084 197.149 329.126 195.962 329.812 194.568C330.551 193.061 330.935 191.406 330.935 189.728C330.935 188.05 330.551 186.395 329.812 184.888C329.126 183.494 328.084 182.307 326.79 181.445C325.539 180.594 324.058 180.142 322.545 180.148C321.037 180.129 319.561 180.583 318.324 181.445C317.037 182.314 315.996 183.5 315.302 184.888C314.563 186.395 314.179 188.05 314.179 189.728C314.179 191.406 314.563 193.061 315.302 194.568C315.996 195.956 317.037 197.142 318.324 198.011C319.574 198.839 321.044 199.274 322.545 199.258C324.051 199.264 325.527 198.83 326.79 198.011Z" fill="black"/>
<path d="M342.899 170.867C342.901 171.175 342.841 171.48 342.72 171.763C342.6 172.047 342.423 172.302 342.2 172.514C341.989 172.731 341.737 172.902 341.457 173.018C341.178 173.134 340.878 173.191 340.576 173.188C340.27 173.192 339.967 173.135 339.683 173.019C339.4 172.903 339.143 172.731 338.928 172.514C338.495 172.075 338.252 171.484 338.252 170.867C338.252 170.251 338.495 169.66 338.928 169.221C339.143 169.004 339.4 168.832 339.683 168.716C339.967 168.6 340.27 168.543 340.576 168.547C340.878 168.543 341.178 168.601 341.457 168.717C341.737 168.833 341.989 169.004 342.2 169.221C342.423 169.433 342.6 169.688 342.72 169.972C342.841 170.255 342.901 170.56 342.899 170.867ZM342.275 202.152H338.953V177.204H342.275V202.152Z" fill="black"/>
<path d="M346.869 177.254H350.19V179.599C351.059 178.721 352.095 178.025 353.237 177.553C354.376 177.077 355.599 176.831 356.834 176.83C358.606 176.828 360.341 177.339 361.829 178.302C363.353 179.288 364.593 180.656 365.425 182.269C366.327 183.965 366.782 185.862 366.748 187.782V202.152H363.427V187.782C363.446 186.45 363.146 185.133 362.553 183.94C361.98 182.813 361.118 181.858 360.055 181.171C359.062 180.495 357.886 180.138 356.684 180.148C355.483 180.145 354.309 180.502 353.312 181.171C352.263 181.873 351.405 182.824 350.815 183.94C350.233 185.137 349.934 186.451 349.941 187.782V202.152H346.619L346.869 177.254Z" fill="black"/>
<path d="M375.79 211.607C374.103 210.756 372.673 209.473 371.644 207.89L374.441 206.094C375.195 207.172 376.22 208.032 377.413 208.589C378.697 209.238 380.12 209.563 381.559 209.537C383.032 209.564 384.49 209.23 385.804 208.564C387.016 207.965 388.037 207.04 388.751 205.894C389.473 204.744 389.846 203.41 389.825 202.052V198.684C388.775 199.866 387.491 200.818 386.054 201.478C384.376 202.24 382.536 202.575 380.697 202.453C378.858 202.331 377.077 201.756 375.515 200.78C373.722 199.633 372.266 198.032 371.294 196.14C370.256 194.127 369.724 191.892 369.746 189.628C369.721 187.372 370.253 185.144 371.294 183.142C372.251 181.24 373.711 179.635 375.515 178.502C377.277 177.361 379.335 176.762 381.434 176.78C383.028 176.781 384.603 177.121 386.054 177.778C387.486 178.447 388.769 179.398 389.825 180.572V177.154H393.147V202.102C393.184 204.041 392.654 205.948 391.623 207.591C390.617 209.237 389.185 210.581 387.478 211.483C385.657 212.448 383.62 212.937 381.559 212.905C379.56 212.94 377.581 212.495 375.79 211.607ZM385.779 198.011C387.067 197.142 388.108 195.956 388.801 194.568C389.54 193.061 389.924 191.406 389.924 189.728C389.924 188.05 389.54 186.395 388.801 184.888C388.114 183.502 387.071 182.323 385.779 181.47C384.519 180.641 383.043 180.199 381.534 180.199C380.025 180.199 378.549 180.641 377.288 181.47C376.01 182.332 374.978 183.509 374.291 184.888C373.552 186.395 373.168 188.05 373.168 189.728C373.168 191.406 373.552 193.061 374.291 194.568C374.983 195.95 376.014 197.134 377.288 198.011C378.554 198.825 380.028 199.258 381.534 199.258C383.04 199.258 384.514 198.825 385.779 198.011Z" fill="black"/>
</g>
<defs>
<clipPath id="clip0_1_429">
<rect width="829" height="227" fill="white"/>
</clipPath>
</defs>
</svg>
